<svg xmlns="http://www.w3.org/2000/svg" xmlns:xlink="http://www.w3.org/1999/xlink" contentStyleType="text/css" data-diagram-type="CLASS" height="540px" preserveAspectRatio="none" style="width:1921px;height:540px;background:#FFFFFF;" version="1.1" viewBox="0 0 1921 540" width="1921px" zoomAndPan="magnify"><defs/><g><!--class USUARIO--><g id="elem_USUARIO"><rect codeLine="2" fill="#F1F1F1" height="113.1875" id="USUARIO" rx="2.5" ry="2.5" style="stroke:#181818;stroke-width:0.5;" width="108.0381" x="547" y="7"/><ellipse cx="567.4918" cy="23" fill="#ADD1B2" rx="11" ry="11" style="stroke:#181818;stroke-width:1;"/><path d="M571.6012,29 L563.8825,29 L563.8825,16.6094 L571.6012,16.6094 L571.6012,18.7656 L566.3356,18.7656 L566.3356,21.4375 L571.1012,21.4375 L571.1012,23.5938 L566.3356,23.5938 L566.3356,26.8438 L571.6012,26.8438 L571.6012,29 Z " fill="#000000"/><text fill="#000000" font-family="sans-serif" font-size="14" lengthAdjust="spacing" textLength="63.834" x="582.7123" y="27.8467">USUARIO</text><line style="stroke:#181818;stroke-width:0.5;" x1="548" x2="654.0381" y1="39" y2="39"/><ellipse cx="558" cy="52.6484" fill="#000000" rx="3" ry="3" style="stroke:#000000;stroke-width:1;"/><text fill="#000000" font-family="sans-serif" font-size="14" lengthAdjust="spacing" textLength="44.6455" x="567" y="55.9951">id : int</text><line style="stroke:#181818;stroke-width:1;" x1="548" x2="654.0381" y1="63.2969" y2="63.2969"/><text fill="#000000" font-family="sans-serif" font-size="14" lengthAdjust="spacing" textLength="93.4951" x="553" y="80.292">nome : string</text><text fill="#000000" font-family="sans-serif" font-size="14" lengthAdjust="spacing" textLength="92.415" x="553" y="96.5889">email : string</text><text fill="#000000" font-family="sans-serif" font-size="14" lengthAdjust="spacing" textLength="96.0381" x="553" y="112.8857">senha : string</text></g><!--class RECUPERACAO_SENHA--><g id="elem_RECUPERACAO_SENHA"><rect codeLine="10" fill="#F1F1F1" height="113.1875" id="RECUPERACAO_SENHA" rx="2.5" ry="2.5" style="stroke:#181818;stroke-width:0.5;" width="196.2012" x="7" y="213.5"/><ellipse cx="23.499" cy="229.5" fill="#ADD1B2" rx="11" ry="11" style="stroke:#181818;stroke-width:1;"/><path d="M27.6083,235.5 L19.8896,235.5 L19.8896,223.1094 L27.6083,223.1094 L27.6083,225.2656 L22.3427,225.2656 L22.3427,227.9375 L27.1083,227.9375 L27.1083,230.0938 L22.3427,230.0938 L22.3427,233.3438 L27.6083,233.3438 L27.6083,235.5 Z " fill="#000000"/><text fill="#000000" font-family="sans-serif" font-size="14" lengthAdjust="spacing" textLength="160.8701" x="37.8321" y="234.3467">RECUPERACAO_SENHA</text><line style="stroke:#181818;stroke-width:0.5;" x1="8" x2="202.2012" y1="245.5" y2="245.5"/><ellipse cx="18" cy="259.1484" fill="#000000" rx="3" ry="3" style="stroke:#000000;stroke-width:1;"/><text fill="#000000" font-family="sans-serif" font-size="14" lengthAdjust="spacing" textLength="44.6455" x="27" y="262.4951">id : int</text><line style="stroke:#181818;stroke-width:1;" x1="8" x2="202.2012" y1="269.7969" y2="269.7969"/><text fill="#000000" font-family="sans-serif" font-size="14" lengthAdjust="spacing" textLength="103.4756" x="13" y="286.792">usuario_id : int</text><text fill="#000000" font-family="sans-serif" font-size="14" lengthAdjust="spacing" textLength="93.4541" x="13" y="303.0889">token : string</text><text fill="#000000" font-family="sans-serif" font-size="14" lengthAdjust="spacing" textLength="184.2012" x="13" y="319.3857">data_expiracao : datetime</text></g><!--class PERFIL--><g id="elem_PERFIL"><rect codeLine="18" fill="#F1F1F1" height="96.8906" id="PERFIL" rx="2.5" ry="2.5" style="stroke:#181818;stroke-width:0.5;" width="93.3545" x="238.5" y="221.5"/><ellipse cx="259.9608" cy="237.5" fill="#ADD1B2" rx="11" ry="11" style="stroke:#181818;stroke-width:1;"/><path d="M264.0702,243.5 L256.3515,243.5 L256.3515,231.1094 L264.0702,231.1094 L264.0702,233.2656 L258.8046,233.2656 L258.8046,235.9375 L263.5702,235.9375 L263.5702,238.0938 L258.8046,238.0938 L258.8046,241.3438 L264.0702,241.3438 L264.0702,243.5 Z " fill="#000000"/><text fill="#000000" font-family="sans-serif" font-size="14" lengthAdjust="spacing" textLength="46.9971" x="275.3966" y="242.3467">PERFIL</text><line style="stroke:#181818;stroke-width:0.5;" x1="239.5" x2="330.8545" y1="253.5" y2="253.5"/><ellipse cx="249.5" cy="267.1484" fill="#000000" rx="3" ry="3" style="stroke:#000000;stroke-width:1;"/><text fill="#000000" font-family="sans-serif" font-size="14" lengthAdjust="spacing" textLength="44.6455" x="258.5" y="270.4951">id : int</text><line style="stroke:#181818;stroke-width:1;" x1="239.5" x2="330.8545" y1="277.7969" y2="277.7969"/><text fill="#000000" font-family="sans-serif" font-size="14" lengthAdjust="spacing" textLength="81.3545" x="244.5" y="294.792">foto : string</text><text fill="#000000" font-family="sans-serif" font-size="14" lengthAdjust="spacing" textLength="75.1475" x="244.5" y="311.0889">bio : string</text></g><!--class GRUPO--><g id="elem_GRUPO"><rect codeLine="25" fill="#F1F1F1" height="96.8906" id="GRUPO" rx="2.5" ry="2.5" style="stroke:#181818;stroke-width:0.5;" width="132.7842" x="1203.5" y="15"/><ellipse cx="1241.2246" cy="31" fill="#ADD1B2" rx="11" ry="11" style="stroke:#181818;stroke-width:1;"/><path d="M1245.3339,37 L1237.6152,37 L1237.6152,24.6094 L1245.3339,24.6094 L1245.3339,26.7656 L1240.0683,26.7656 L1240.0683,29.4375 L1244.8339,29.4375 L1244.8339,31.5938 L1240.0683,31.5938 L1240.0683,34.8438 L1245.3339,34.8438 L1245.3339,37 Z " fill="#000000"/><text fill="#000000" font-family="sans-serif" font-size="14" lengthAdjust="spacing" textLength="50.2852" x="1260.2745" y="35.8467">GRUPO</text><line style="stroke:#181818;stroke-width:0.5;" x1="1204.5" x2="1335.2842" y1="47" y2="47"/><ellipse cx="1214.5" cy="60.6484" fill="#000000" rx="3" ry="3" style="stroke:#000000;stroke-width:1;"/><text fill="#000000" font-family="sans-serif" font-size="14" lengthAdjust="spacing" textLength="44.6455" x="1223.5" y="63.9951">id : int</text><line style="stroke:#181818;stroke-width:1;" x1="1204.5" x2="1335.2842" y1="71.2969" y2="71.2969"/><text fill="#000000" font-family="sans-serif" font-size="14" lengthAdjust="spacing" textLength="93.4951" x="1209.5" y="88.292">nome : string</text><text fill="#000000" font-family="sans-serif" font-size="14" lengthAdjust="spacing" textLength="120.7842" x="1209.5" y="104.5889">descricao : string</text></g><!--class CALENDARIO--><g id="elem_CALENDARIO"><rect codeLine="32" fill="#F1F1F1" height="80.5938" id="CALENDARIO" rx="2.5" ry="2.5" style="stroke:#181818;stroke-width:0.5;" width="268.0811" x="546" y="229.5"/><ellipse cx="629.9385" cy="245.5" fill="#ADD1B2" rx="11" ry="11" style="stroke:#181818;stroke-width:1;"/><path d="M634.0479,251.5 L626.3291,251.5 L626.3291,239.1094 L634.0479,239.1094 L634.0479,241.2656 L628.7822,241.2656 L628.7822,243.9375 L633.5479,243.9375 L633.5479,246.0938 L628.7822,246.0938 L628.7822,249.3438 L634.0479,249.3438 L634.0479,251.5 Z " fill="#000000"/><text fill="#000000" font-family="sans-serif" font-size="14" lengthAdjust="spacing" textLength="91.7041" x="650.4385" y="250.3467">CALENDARIO</text><line style="stroke:#181818;stroke-width:0.5;" x1="547" x2="813.0811" y1="261.5" y2="261.5"/><ellipse cx="557" cy="275.1484" fill="#000000" rx="3" ry="3" style="stroke:#000000;stroke-width:1;"/><text fill="#000000" font-family="sans-serif" font-size="14" lengthAdjust="spacing" textLength="44.6455" x="566" y="278.4951">id : int</text><line style="stroke:#181818;stroke-width:1;" x1="547" x2="813.0811" y1="285.7969" y2="285.7969"/><text fill="#000000" font-family="sans-serif" font-size="14" lengthAdjust="spacing" textLength="256.0811" x="552" y="302.792">tipo : string  ' INDIVIDUAL ou GRUPO</text></g><!--class CALENDARIO_EVENTO--><g id="elem_CALENDARIO_EVENTO"><rect codeLine="38" fill="#F1F1F1" height="96.8906" id="CALENDARIO_EVENTO" rx="2.5" ry="2.5" style="stroke:#181818;stroke-width:0.5;" width="188.0166" x="769" y="428"/><ellipse cx="784" cy="444" fill="#ADD1B2" rx="11" ry="11" style="stroke:#181818;stroke-width:1;"/><path d="M788.1094,450 L780.3906,450 L780.3906,437.6094 L788.1094,437.6094 L788.1094,439.7656 L782.8438,439.7656 L782.8438,442.4375 L787.6094,442.4375 L787.6094,444.5938 L782.8438,444.5938 L782.8438,447.8438 L788.1094,447.8438 L788.1094,450 Z " fill="#000000"/><text fill="#000000" font-family="sans-serif" font-size="14" lengthAdjust="spacing" textLength="156.0166" x="798" y="448.8467">CALENDARIO_EVENTO</text><line style="stroke:#181818;stroke-width:0.5;" x1="770" x2="956.0166" y1="460" y2="460"/><ellipse cx="780" cy="473.6484" fill="#000000" rx="3" ry="3" style="stroke:#000000;stroke-width:1;"/><text fill="#000000" font-family="sans-serif" font-size="14" lengthAdjust="spacing" textLength="44.6455" x="789" y="476.9951">id : int</text><line style="stroke:#181818;stroke-width:1;" x1="770" x2="956.0166" y1="484.2969" y2="484.2969"/><text fill="#000000" font-family="sans-serif" font-size="14" lengthAdjust="spacing" textLength="124.9746" x="775" y="501.292">calendario_id : int</text><text fill="#000000" font-family="sans-serif" font-size="14" lengthAdjust="spacing" textLength="100.085" x="775" y="517.5889">evento_id : int</text></g><!--class EVENTO--><g id="elem_EVENTO"><rect codeLine="45" fill="#F1F1F1" height="145.7813" id="EVENTO" rx="2.5" ry="2.5" style="stroke:#181818;stroke-width:0.5;" width="352.8604" x="849.5" y="197"/><ellipse cx="993.0239" cy="213" fill="#ADD1B2" rx="11" ry="11" style="stroke:#181818;stroke-width:1;"/><path d="M997.1333,219 L989.4146,219 L989.4146,206.6094 L997.1333,206.6094 L997.1333,208.7656 L991.8677,208.7656 L991.8677,211.4375 L996.6333,211.4375 L996.6333,213.5938 L991.8677,213.5938 L991.8677,216.8438 L997.1333,216.8438 L997.1333,219 Z " fill="#000000"/><text fill="#000000" font-family="sans-serif" font-size="14" lengthAdjust="spacing" textLength="57.3125" x="1013.5239" y="217.8467">EVENTO</text><line style="stroke:#181818;stroke-width:0.5;" x1="850.5" x2="1201.3604" y1="229" y2="229"/><ellipse cx="860.5" cy="242.6484" fill="#000000" rx="3" ry="3" style="stroke:#000000;stroke-width:1;"/><text fill="#000000" font-family="sans-serif" font-size="14" lengthAdjust="spacing" textLength="44.6455" x="869.5" y="245.9951">id : int</text><line style="stroke:#181818;stroke-width:1;" x1="850.5" x2="1201.3604" y1="253.2969" y2="253.2969"/><text fill="#000000" font-family="sans-serif" font-size="14" lengthAdjust="spacing" textLength="90.002" x="855.5" y="270.292">titulo : string</text><text fill="#000000" font-family="sans-serif" font-size="14" lengthAdjust="spacing" textLength="76.7197" x="855.5" y="286.5889">data : date</text><text fill="#000000" font-family="sans-serif" font-size="14" lengthAdjust="spacing" textLength="77.0205" x="855.5" y="302.8857">hora : time</text><text fill="#000000" font-family="sans-serif" font-size="14" lengthAdjust="spacing" textLength="340.8604" x="855.5" y="319.1826">visibilidade : string  ' Ex: Privado, Compartilhado</text><text fill="#000000" font-family="sans-serif" font-size="14" lengthAdjust="spacing" textLength="313.5303" x="855.5" y="335.4795">tipo : string         ' Ex: INDIVIDUAL ou GRUPO</text></g><!--class COMPARTILHAMENTO_EVENTO--><g id="elem_COMPARTILHAMENTO_EVENTO"><rect codeLine="55" fill="#F1F1F1" height="113.1875" id="COMPARTILHAMENTO_EVENTO" rx="2.5" ry="2.5" style="stroke:#181818;stroke-width:0.5;" width="256.3711" x="1385" y="420"/><ellipse cx="1403.5477" cy="436" fill="#ADD1B2" rx="11" ry="11" style="stroke:#181818;stroke-width:1;"/><path d="M1407.6571,442 L1399.9383,442 L1399.9383,429.6094 L1407.6571,429.6094 L1407.6571,431.7656 L1402.3915,431.7656 L1402.3915,434.4375 L1407.1571,434.4375 L1407.1571,436.5938 L1402.3915,436.5938 L1402.3915,439.8438 L1407.6571,439.8438 L1407.6571,442 Z " fill="#000000"/><text fill="#000000" font-family="sans-serif" font-size="14" lengthAdjust="spacing" textLength="216.4873" x="1418.3361" y="440.8467">COMPARTILHAMENTO_EVENTO</text><line style="stroke:#181818;stroke-width:0.5;" x1="1386" x2="1640.3711" y1="452" y2="452"/><ellipse cx="1396" cy="465.6484" fill="#000000" rx="3" ry="3" style="stroke:#000000;stroke-width:1;"/><text fill="#000000" font-family="sans-serif" font-size="14" lengthAdjust="spacing" textLength="44.6455" x="1405" y="468.9951">id : int</text><line style="stroke:#181818;stroke-width:1;" x1="1386" x2="1640.3711" y1="476.2969" y2="476.2969"/><text fill="#000000" font-family="sans-serif" font-size="14" lengthAdjust="spacing" textLength="100.085" x="1391" y="493.292">evento_id : int</text><text fill="#000000" font-family="sans-serif" font-size="14" lengthAdjust="spacing" textLength="92.6133" x="1391" y="509.5889">grupo_id : int</text><text fill="#000000" font-family="sans-serif" font-size="14" lengthAdjust="spacing" textLength="244.3711" x="1391" y="525.8857">data_compartilhamento : datetime</text></g><!--class NOTIFICACAO--><g id="elem_NOTIFICACAO"><rect codeLine="63" fill="#F1F1F1" height="96.8906" id="NOTIFICACAO" rx="2.5" ry="2.5" style="stroke:#181818;stroke-width:0.5;" width="143.9404" x="367" y="221.5"/><ellipse cx="389.1376" cy="237.5" fill="#ADD1B2" rx="11" ry="11" style="stroke:#181818;stroke-width:1;"/><path d="M393.247,243.5 L385.5282,243.5 L385.5282,231.1094 L393.247,231.1094 L393.247,233.2656 L387.9813,233.2656 L387.9813,235.9375 L392.747,235.9375 L392.747,238.0938 L387.9813,238.0938 L387.9813,241.3438 L393.247,241.3438 L393.247,243.5 Z " fill="#000000"/><text fill="#000000" font-family="sans-serif" font-size="14" lengthAdjust="spacing" textLength="96.0791" x="404.7237" y="242.3467">NOTIFICACAO</text><line style="stroke:#181818;stroke-width:0.5;" x1="368" x2="509.9404" y1="253.5" y2="253.5"/><ellipse cx="378" cy="267.1484" fill="#000000" rx="3" ry="3" style="stroke:#000000;stroke-width:1;"/><text fill="#000000" font-family="sans-serif" font-size="14" lengthAdjust="spacing" textLength="44.6455" x="387" y="270.4951">id : int</text><line style="stroke:#181818;stroke-width:1;" x1="368" x2="509.9404" y1="277.7969" y2="277.7969"/><text fill="#000000" font-family="sans-serif" font-size="14" lengthAdjust="spacing" textLength="131.9404" x="373" y="294.792">mensagem : string</text><text fill="#000000" font-family="sans-serif" font-size="14" lengthAdjust="spacing" textLength="108.3496" x="373" y="311.0889">data : datetime</text></g><!--class CONVITE--><g id="elem_CONVITE"><rect codeLine="70" fill="#F1F1F1" height="96.8906" id="CONVITE" rx="2.5" ry="2.5" style="stroke:#181818;stroke-width:0.5;" width="348.5195" x="1237.5" y="221.5"/><ellipse cx="1376.3242" cy="237.5" fill="#ADD1B2" rx="11" ry="11" style="stroke:#181818;stroke-width:1;"/><path d="M1380.4336,243.5 L1372.7148,243.5 L1372.7148,231.1094 L1380.4336,231.1094 L1380.4336,233.2656 L1375.168,233.2656 L1375.168,235.9375 L1379.9336,235.9375 L1379.9336,238.0938 L1375.168,238.0938 L1375.168,241.3438 L1380.4336,241.3438 L1380.4336,243.5 Z " fill="#000000"/><text fill="#000000" font-family="sans-serif" font-size="14" lengthAdjust="spacing" textLength="62.3711" x="1396.8242" y="242.3467">CONVITE</text><line style="stroke:#181818;stroke-width:0.5;" x1="1238.5" x2="1585.0195" y1="253.5" y2="253.5"/><ellipse cx="1248.5" cy="267.1484" fill="#000000" rx="3" ry="3" style="stroke:#000000;stroke-width:1;"/><text fill="#000000" font-family="sans-serif" font-size="14" lengthAdjust="spacing" textLength="44.6455" x="1257.5" y="270.4951">id : int</text><line style="stroke:#181818;stroke-width:1;" x1="1238.5" x2="1585.0195" y1="277.7969" y2="277.7969"/><text fill="#000000" font-family="sans-serif" font-size="14" lengthAdjust="spacing" textLength="336.5195" x="1243.5" y="294.792">status : string   ' Ex: pendente, aceito, recusado</text><text fill="#000000" font-family="sans-serif" font-size="14" lengthAdjust="spacing" textLength="153.5762" x="1243.5" y="311.0889">data_envio : datetime</text></g><!--class USUARIO_GRUPO--><g id="elem_USUARIO_GRUPO"><rect codeLine="77" fill="#F1F1F1" height="96.8906" id="USUARIO_GRUPO" rx="2.5" ry="2.5" style="stroke:#181818;stroke-width:0.5;" width="153.1191" x="1621.5" y="221.5"/><ellipse cx="1636.5" cy="237.5" fill="#ADD1B2" rx="11" ry="11" style="stroke:#181818;stroke-width:1;"/><path d="M1640.6094,243.5 L1632.8906,243.5 L1632.8906,231.1094 L1640.6094,231.1094 L1640.6094,233.2656 L1635.3438,233.2656 L1635.3438,235.9375 L1640.1094,235.9375 L1640.1094,238.0938 L1635.3438,238.0938 L1635.3438,241.3438 L1640.6094,241.3438 L1640.6094,243.5 Z " fill="#000000"/><text fill="#000000" font-family="sans-serif" font-size="14" lengthAdjust="spacing" textLength="121.1191" x="1650.5" y="242.3467">USUARIO_GRUPO</text><line style="stroke:#181818;stroke-width:0.5;" x1="1622.5" x2="1773.6191" y1="253.5" y2="253.5"/><ellipse cx="1632.5" cy="267.1484" fill="#000000" rx="3" ry="3" style="stroke:#000000;stroke-width:1;"/><text fill="#000000" font-family="sans-serif" font-size="14" lengthAdjust="spacing" textLength="44.6455" x="1641.5" y="270.4951">id : int</text><line style="stroke:#181818;stroke-width:1;" x1="1622.5" x2="1773.6191" y1="277.7969" y2="277.7969"/><text fill="#000000" font-family="sans-serif" font-size="14" lengthAdjust="spacing" textLength="103.4756" x="1627.5" y="294.792">usuario_id : int</text><text fill="#000000" font-family="sans-serif" font-size="14" lengthAdjust="spacing" textLength="92.6133" x="1627.5" y="311.0889">grupo_id : int</text></g><!--link USUARIO to PERFIL--><g id="link_USUARIO_PERFIL"><path codeLine="85" d="M539.4356,89.3285 C486.0156,112.1985 410.99,148.48 349,197 C339.91,204.11 336.5271,206.7702 328.4671,215.4102 " fill="transparent" id="USUARIO-PERFIL" style="stroke:#181818;stroke-width:1;"/><line style="stroke:#181818;stroke-width:1;" x1="541.5386" x2="544.6871" y1="84.0771" y2="91.4314"/><line style="stroke:#181818;stroke-width:1;" x1="538.7807" x2="541.9292" y1="85.2578" y2="92.6121"/><line style="stroke:#181818;stroke-width:1;" x1="539.4356" x2="546.79" y1="89.3285" y2="86.18"/><line style="stroke:#181818;stroke-width:1;" x1="328.6634" x2="322.8137" y1="221.0637" y2="215.6066"/><line style="stroke:#181818;stroke-width:1;" x1="330.7099" x2="324.8601" y1="218.87" y2="213.4129"/><line style="stroke:#181818;stroke-width:1;" x1="328.4671" x2="323.01" y1="215.4102" y2="221.26"/><text fill="#000000" font-family="sans-serif" font-size="13" lengthAdjust="spacing" textLength="41.6025" x="415" y="163.0669">possui</text></g><!--link USUARIO to CALENDARIO--><g id="link_USUARIO_CALENDARIO"><path codeLine="86" d="M591.8065,128.165 C591.2565,143.675 592.83,152.31 598,167 C606.15,190.15 610.0071,198.5151 625.6271,215.9451 " fill="transparent" id="USUARIO-CALENDARIO" style="stroke:#181818;stroke-width:1;"/><line style="stroke:#181818;stroke-width:1;" x1="587.9508" x2="595.9457" y1="124.0257" y2="124.3092"/><line style="stroke:#181818;stroke-width:1;" x1="587.8444" x2="595.8394" y1="127.0238" y2="127.3074"/><line style="stroke:#181818;stroke-width:1;" x1="591.8065" x2="592.09" y1="128.165" y2="120.17"/><line style="stroke:#181818;stroke-width:1;" x1="632.3009" x2="642.1083" y1="223.3923" y2="225.3457"/><line style="stroke:#181818;stroke-width:1;" x1="632.3009" x2="633.1717" y1="223.3923" y2="233.3543"/><line style="stroke:#181818;stroke-width:1;" x1="632.3009" x2="637.64" y1="223.3923" y2="229.35"/><ellipse cx="628.2967" cy="218.924" fill="transparent" rx="4" ry="4" style="stroke:#181818;stroke-width:1;"/><text fill="#000000" font-family="sans-serif" font-size="13" lengthAdjust="spacing" textLength="25.7588" x="599" y="163.0669">tem</text></g><!--link GRUPO to CALENDARIO--><g id="link_GRUPO_CALENDARIO"><path codeLine="87" d="M1195.4259,77.4282 C1123.4359,90.8682 1013.94,114.45 917,150 C908.62,153.07 839.5607,187.9028 773.7007,221.3328 " fill="transparent" id="GRUPO-CALENDARIO" style="stroke:#181818;stroke-width:1;"/><line style="stroke:#181818;stroke-width:1;" x1="1198.6239" x2="1200.092" y1="72.762" y2="80.6261"/><line style="stroke:#181818;stroke-width:1;" x1="1195.6748" x2="1197.143" y1="73.3126" y2="81.1767"/><line style="stroke:#181818;stroke-width:1;" x1="1195.4259" x2="1203.29" y1="77.4282" y2="75.96"/><line style="stroke:#181818;stroke-width:1;" x1="764.7836" x2="760.3657" y1="225.859" y2="234.8302"/><line style="stroke:#181818;stroke-width:1;" x1="764.7836" x2="754.9343" y1="225.859" y2="224.1298"/><line style="stroke:#181818;stroke-width:1;" x1="764.7836" x2="757.65" y1="225.859" y2="229.48"/><ellipse cx="770.1338" cy="223.1433" fill="transparent" rx="4" ry="4" style="stroke:#181818;stroke-width:1;"/><text fill="#000000" font-family="sans-serif" font-size="13" lengthAdjust="spacing" textLength="41.6025" x="918" y="163.0669">possui</text></g><!--link CALENDARIO to CALENDARIO_EVENTO--><g id="link_CALENDARIO_CALENDARIO_EVENTO"><path codeLine="88" d="M721.0557,316.8808 C751.0157,350.3508 776.5263,378.8669 808.2963,414.3669 " fill="transparent" id="CALENDARIO-CALENDARIO_EVENTO" style="stroke:#181818;stroke-width:1;"/><line style="stroke:#181818;stroke-width:1;" x1="715.4074" x2="721.3682" y1="316.5682" y2="311.2326"/><line style="stroke:#181818;stroke-width:1;" x1="717.4083" x2="723.3691" y1="318.8035" y2="313.4678"/><line style="stroke:#181818;stroke-width:1;" x1="721.0557" x2="715.72" y1="316.8808" y2="310.92"/><line style="stroke:#181818;stroke-width:1;" x1="814.965" x2="824.771" y1="421.8186" y2="423.7788"/><line style="stroke:#181818;stroke-width:1;" x1="814.965" x2="815.829" y1="421.8186" y2="431.7812"/><line style="stroke:#181818;stroke-width:1;" x1="814.965" x2="820.3" y1="421.8186" y2="427.78"/><ellipse cx="810.9638" cy="417.3476" fill="transparent" rx="4" ry="4" style="stroke:#181818;stroke-width:1;"/><text fill="#000000" font-family="sans-serif" font-size="13" lengthAdjust="spacing" textLength="34.4614" x="784" y="386.0669">inclui</text></g><!--link EVENTO to CALENDARIO_EVENTO--><g id="link_EVENTO_CALENDARIO_EVENTO"><path codeLine="89" d="M963.5444,349.3565 C941.1844,377.4165 932.3686,388.4637 912.3086,413.6337 " fill="transparent" id="EVENTO-CALENDARIO_EVENTO" style="stroke:#181818;stroke-width:1;"/><line style="stroke:#181818;stroke-width:1;" x1="962.909" x2="969.1655" y1="343.7355" y2="348.721"/><line style="stroke:#181818;stroke-width:1;" x1="961.0394" x2="967.2959" y1="346.0817" y2="351.0672"/><line style="stroke:#181818;stroke-width:1;" x1="963.5444" x2="968.53" y1="349.3565" y2="343.1"/><line style="stroke:#181818;stroke-width:1;" x1="906.076" x2="905.7821" y1="421.4538" y2="431.4495"/><line style="stroke:#181818;stroke-width:1;" x1="906.076" x2="896.3979" y1="421.4538" y2="423.9705"/><line style="stroke:#181818;stroke-width:1;" x1="906.076" x2="901.09" y1="421.4538" y2="427.71"/><ellipse cx="909.8156" cy="416.7617" fill="transparent" rx="4" ry="4" style="stroke:#181818;stroke-width:1;"/><text fill="#000000" font-family="sans-serif" font-size="13" lengthAdjust="spacing" textLength="52.6284" x="946" y="386.0669">est&#225; em</text></g><!--link USUARIO to EVENTO--><g id="link_USUARIO_EVENTO"><path codeLine="90" d="M661.388,114.6645 C686.638,134.1945 711.48,151.23 742,167 C779.09,186.16 791.64,183.1 831,197 C837.04,199.13 826.2249,195.2763 832.4249,197.4863 " fill="transparent" id="USUARIO-EVENTO" style="stroke:#181818;stroke-width:1;"/><line style="stroke:#181818;stroke-width:1;" x1="655.7768" x2="660.6713" y1="115.3813" y2="109.0532"/><line style="stroke:#181818;stroke-width:1;" x1="658.1498" x2="663.0443" y1="117.2167" y2="110.8887"/><line style="stroke:#181818;stroke-width:1;" x1="661.388" x2="655.06" y1="114.6645" y2="109.77"/><line style="stroke:#181818;stroke-width:1;" x1="841.8444" x2="851.3946" y1="200.8439" y2="197.8783"/><line style="stroke:#181818;stroke-width:1;" x1="841.8444" x2="847.3654" y1="200.8439" y2="209.1817"/><line style="stroke:#181818;stroke-width:1;" x1="841.8444" x2="849.38" y1="200.8439" y2="203.53"/><ellipse cx="836.1927" cy="198.8294" fill="transparent" rx="4" ry="4" style="stroke:#181818;stroke-width:1;"/><text fill="#000000" font-family="sans-serif" font-size="13" lengthAdjust="spacing" textLength="133.6689" x="743" y="163.0669">' Eventos individuais</text><text fill="#000000" font-family="sans-serif" font-size="13" lengthAdjust="spacing" textLength="24.0703" x="663.113" y="111.5587">cria</text></g><!--link GRUPO to EVENTO--><g id="link_GRUPO_EVENTO"><path codeLine="91" d="M1196.484,101.736 C1170.974,116.056 1149.38,130.15 1126,150 C1109.75,163.8 1105.695,166.7269 1091.695,183.1069 " fill="transparent" id="GRUPO-EVENTO" style="stroke:#181818;stroke-width:1;"/><line style="stroke:#181818;stroke-width:1;" x1="1198.014" x2="1201.93" y1="96.29" y2="103.266"/><line style="stroke:#181818;stroke-width:1;" x1="1195.398" x2="1199.314" y1="97.7585" y2="104.7345"/><line style="stroke:#181818;stroke-width:1;" x1="1196.484" x2="1203.46" y1="101.736" y2="97.82"/><line style="stroke:#181818;stroke-width:1;" x1="1085.1978" x2="1084.561" y1="190.7086" y2="200.6883"/><line style="stroke:#181818;stroke-width:1;" x1="1085.1978" x2="1075.439" y1="190.7086" y2="192.8917"/><line style="stroke:#181818;stroke-width:1;" x1="1085.1978" x2="1080" y1="190.7086" y2="196.79"/><ellipse cx="1089.0961" cy="186.1476" fill="transparent" rx="4" ry="4" style="stroke:#181818;stroke-width:1;"/><text fill="#000000" font-family="sans-serif" font-size="13" lengthAdjust="spacing" textLength="122.2305" x="1127" y="163.0669">' Eventos de grupo</text><text fill="#000000" font-family="sans-serif" font-size="13" lengthAdjust="spacing" textLength="24.0703" x="1171.3753" y="97.6652">cria</text></g><!--link EVENTO to COMPARTILHAMENTO_EVENTO--><g id="link_EVENTO_COMPARTILHAMENTO_EVENTO"><path codeLine="92" d="M1205.0761,346.1972 C1266.6861,372.0672 1311.0744,390.6996 1368.3344,414.7496 " fill="transparent" id="EVENTO-COMPARTILHAMENTO_EVENTO" style="stroke:#181818;stroke-width:1;"/><line style="stroke:#181818;stroke-width:1;" x1="1199.8394" x2="1202.9367" y1="348.3367" y2="340.9606"/><line style="stroke:#181818;stroke-width:1;" x1="1202.6055" x2="1205.7027" y1="349.4981" y2="342.122"/><line style="stroke:#181818;stroke-width:1;" x1="1205.0761" x2="1197.7" y1="346.1972" y2="343.1"/><line style="stroke:#181818;stroke-width:1;" x1="1377.5542" x2="1387.2535" y1="418.6221" y2="416.1881"/><line style="stroke:#181818;stroke-width:1;" x1="1377.5542" x2="1382.6065" y1="418.6221" y2="427.2519"/><line style="stroke:#181818;stroke-width:1;" x1="1377.5542" x2="1384.93" y1="418.6221" y2="421.72"/><ellipse cx="1372.0223" cy="416.2986" fill="transparent" rx="4" ry="4" style="stroke:#181818;stroke-width:1;"/><text fill="#000000" font-family="sans-serif" font-size="13" lengthAdjust="spacing" textLength="106.1899" x="1299" y="386.0669">&#233; compartilhado</text></g><!--link GRUPO to COMPARTILHAMENTO_EVENTO--><g id="link_GRUPO_COMPARTILHAMENTO_EVENTO"><path codeLine="93" d="M1344.6774,72.3159 C1472.4974,87.0459 1736.24,125.32 1792,197 C1831.84,248.22 1826.67,288.15 1792,343 C1758.55,395.92 1714.604,422.2834 1658.174,441.6634 " fill="transparent" id="GRUPO-COMPARTILHAMENTO_EVENTO" style="stroke:#181818;stroke-width:1;"/><line style="stroke:#181818;stroke-width:1;" x1="1340.2458" x2="1341.1616" y1="75.8316" y2="67.8842"/><line style="stroke:#181818;stroke-width:1;" x1="1343.226" x2="1344.1419" y1="76.1751" y2="68.2277"/><line style="stroke:#181818;stroke-width:1;" x1="1344.6774" x2="1336.73" y1="72.3159" y2="71.4"/><line style="stroke:#181818;stroke-width:1;" x1="1648.7162" x2="1643.0989" y1="444.9115" y2="453.1847"/><line style="stroke:#181818;stroke-width:1;" x1="1648.7162" x2="1639.2011" y1="444.9115" y2="441.8353"/><line style="stroke:#181818;stroke-width:1;" x1="1648.7162" x2="1641.15" y1="444.9115" y2="447.51"/><ellipse cx="1654.3909" cy="442.9626" fill="transparent" rx="4" ry="4" style="stroke:#181818;stroke-width:1;"/><text fill="#000000" font-family="sans-serif" font-size="13" lengthAdjust="spacing" textLength="93.8501" x="1820" y="274.5669">recebe evento</text></g><!--link USUARIO to USUARIO_GRUPO--><g id="link_USUARIO_USUARIO_GRUPO"><path codeLine="94" d="M663.3078,65.3084 C777.0978,67.9884 1039.72,81.53 1254,150 C1269.34,154.9 1270.57,162.38 1286,167 C1421.98,207.76 1471.84,145.16 1604,197 C1618.93,202.86 1619.0097,201.1244 1632.0397,210.7644 " fill="transparent" id="USUARIO-USUARIO_GRUPO" style="stroke:#181818;stroke-width:1;"/><line style="stroke:#181818;stroke-width:1;" x1="659.2147" x2="659.4031" y1="69.2131" y2="61.2153"/><line style="stroke:#181818;stroke-width:1;" x1="662.2139" x2="662.4022" y1="69.2837" y2="61.2859"/><line style="stroke:#181818;stroke-width:1;" x1="663.3078" x2="655.31" y1="65.3084" y2="65.12"/><line style="stroke:#181818;stroke-width:1;" x1="1640.0787" x2="1650.0785" y1="216.712" y2="216.6466"/><line style="stroke:#181818;stroke-width:1;" x1="1640.0787" x2="1642.9415" y1="216.712" y2="226.2934"/><line style="stroke:#181818;stroke-width:1;" x1="1640.0787" x2="1646.51" y1="216.712" y2="221.47"/><ellipse cx="1635.2553" cy="213.1434" fill="transparent" rx="4" ry="4" style="stroke:#181818;stroke-width:1;"/><text fill="#000000" font-family="sans-serif" font-size="13" lengthAdjust="spacing" textLength="77.6318" x="1287" y="163.0669">participa de</text></g><!--link GRUPO to USUARIO_GRUPO--><g id="link_GRUPO_USUARIO_GRUPO"><path codeLine="95" d="M1344.3966,87.3977 C1413.6266,109.9477 1516.22,147.24 1604,197 C1616.52,204.1 1614.7398,201.9978 1626.5898,210.7478 " fill="transparent" id="GRUPO-USUARIO_GRUPO" style="stroke:#181818;stroke-width:1;"/><line style="stroke:#181818;stroke-width:1;" x1="1339.3545" x2="1341.8322" y1="89.9622" y2="82.3555"/><line style="stroke:#181818;stroke-width:1;" x1="1342.207" x2="1344.6847" y1="90.8913" y2="83.2846"/><line style="stroke:#181818;stroke-width:1;" x1="1344.3966" x2="1336.79" y1="87.3977" y2="84.92"/><line style="stroke:#181818;stroke-width:1;" x1="1634.6343" x2="1644.6341" y1="216.6879" y2="216.6133"/><line style="stroke:#181818;stroke-width:1;" x1="1634.6343" x2="1637.5059" y1="216.6879" y2="226.2667"/><line style="stroke:#181818;stroke-width:1;" x1="1634.6343" x2="1641.07" y1="216.6879" y2="221.44"/><ellipse cx="1629.8076" cy="213.1239" fill="transparent" rx="4" ry="4" style="stroke:#181818;stroke-width:1;"/><text fill="#000000" font-family="sans-serif" font-size="13" lengthAdjust="spacing" textLength="25.7588" x="1544" y="163.0669">tem</text></g><!--link USUARIO to CONVITE--><g id="link_USUARIO_CONVITE"><path codeLine="96" d="M662.9725,77.5256 C734.2125,92.7856 855.29,119.81 964,150 C987.84,156.62 992.91,161.4 1017,167 C1105.83,187.66 1131.7,174.19 1220,197 C1245.42,203.57 1255.2155,206.1638 1280.3555,215.3138 " fill="transparent" id="USUARIO-CONVITE" style="stroke:#181818;stroke-width:1;"/><line style="stroke:#181818;stroke-width:1;" x1="658.2235" x2="659.8991" y1="80.5991" y2="72.7765"/><line style="stroke:#181818;stroke-width:1;" x1="661.1569" x2="662.8325" y1="81.2275" y2="73.4049"/><line style="stroke:#181818;stroke-width:1;" x1="662.9725" x2="655.15" y1="77.5256" y2="75.85"/><line style="stroke:#181818;stroke-width:1;" x1="1289.7524" x2="1299.3221" y1="218.7339" y2="215.8318"/><line style="stroke:#181818;stroke-width:1;" x1="1289.7524" x2="1295.2179" y1="218.7339" y2="227.1082"/><line style="stroke:#181818;stroke-width:1;" x1="1289.7524" x2="1297.27" y1="218.7339" y2="221.47"/><ellipse cx="1284.1143" cy="216.6818" fill="transparent" rx="4" ry="4" style="stroke:#181818;stroke-width:1;"/><text fill="#000000" font-family="sans-serif" font-size="13" lengthAdjust="spacing" textLength="84.627" x="1018" y="163.0669">envia/recebe</text></g><!--link GRUPO to CONVITE--><g id="link_GRUPO_CONVITE"><path codeLine="97" d="M1342.7309,115.6848 C1356.1609,127.3448 1363.13,135.49 1373,150 C1387.49,171.3 1392.4008,180.9565 1398.3508,203.8965 " fill="transparent" id="GRUPO-CONVITE" style="stroke:#181818;stroke-width:1;"/><line style="stroke:#181818;stroke-width:1;" x1="1337.0881" x2="1342.3328" y1="116.0828" y2="110.0419"/><line style="stroke:#181818;stroke-width:1;" x1="1339.3534" x2="1344.5982" y1="118.0496" y2="112.0087"/><line style="stroke:#181818;stroke-width:1;" x1="1342.7309" x2="1336.69" y1="115.6848" y2="110.44"/><line style="stroke:#181818;stroke-width:1;" x1="1400.8615" x2="1408.6778" y1="213.5762" y2="219.8136"/><line style="stroke:#181818;stroke-width:1;" x1="1400.8615" x2="1397.0622" y1="213.5762" y2="222.8264"/><line style="stroke:#181818;stroke-width:1;" x1="1400.8615" x2="1402.87" y1="213.5762" y2="221.32"/><ellipse cx="1399.3551" cy="207.7684" fill="transparent" rx="4" ry="4" style="stroke:#181818;stroke-width:1;"/><text fill="#000000" font-family="sans-serif" font-size="13" lengthAdjust="spacing" textLength="76.4956" x="1382" y="163.0669">associado a</text></g><!--link USUARIO to NOTIFICACAO--><g id="link_USUARIO_NOTIFICACAO"><path codeLine="98" d="M551.9827,126.381 C526.8727,158.081 511.8796,177.0127 487.8996,207.2727 " fill="transparent" id="USUARIO-NOTIFICACAO" style="stroke:#181818;stroke-width:1;"/><line style="stroke:#181818;stroke-width:1;" x1="551.3308" x2="557.6018" y1="120.7618" y2="125.7292"/><line style="stroke:#181818;stroke-width:1;" x1="549.4681" x2="555.7391" y1="123.1135" y2="128.0808"/><line style="stroke:#181818;stroke-width:1;" x1="551.9827" x2="556.95" y1="126.381" y2="120.11"/><line style="stroke:#181818;stroke-width:1;" x1="481.6887" x2="481.4224" y1="215.1101" y2="225.1065"/><line style="stroke:#181818;stroke-width:1;" x1="481.6887" x2="472.0176" y1="215.1101" y2="217.6535"/><line style="stroke:#181818;stroke-width:1;" x1="481.6887" x2="476.72" y1="215.1101" y2="221.38"/><ellipse cx="485.4152" cy="210.4076" fill="transparent" rx="4" ry="4" style="stroke:#181818;stroke-width:1;"/><text fill="#000000" font-family="sans-serif" font-size="13" lengthAdjust="spacing" textLength="44.7383" x="531" y="163.0669">recebe</text></g><!--link GRUPO to NOTIFICACAO--><g id="link_GRUPO_NOTIFICACAO"><path codeLine="99" d="M1195.4986,68.8348 C1083.4286,76.4848 858.6,97.2 669,150 C650.39,155.18 647.18,160.46 629,167 C584.94,182.85 569.44,175.19 528,197 C515.34,203.66 517.0001,201.2701 505.4501,210.2001 " fill="transparent" id="GRUPO-NOTIFICACAO" style="stroke:#181818;stroke-width:1;"/><line style="stroke:#181818;stroke-width:1;" x1="1199.2169" x2="1199.7617" y1="64.5717" y2="72.5531"/><line style="stroke:#181818;stroke-width:1;" x1="1196.2238" x2="1196.7687" y1="64.776" y2="72.7574"/><line style="stroke:#181818;stroke-width:1;" x1="1195.4986" x2="1203.48" y1="68.8348" y2="68.29"/><line style="stroke:#181818;stroke-width:1;" x1="497.539" x2="494.88" y1="216.3167" y2="225.9567"/><line style="stroke:#181818;stroke-width:1;" x1="497.539" x2="487.54" y1="216.3167" y2="216.4633"/><line style="stroke:#181818;stroke-width:1;" x1="497.539" x2="491.21" y1="216.3167" y2="221.21"/><ellipse cx="502.2857" cy="212.6467" fill="transparent" rx="4" ry="4" style="stroke:#181818;stroke-width:1;"/><text fill="#000000" font-family="sans-serif" font-size="13" lengthAdjust="spacing" textLength="35.5088" x="670" y="163.0669">envia</text></g><!--link USUARIO to RECUPERACAO_SENHA--><g id="link_USUARIO_RECUPERACAO_SENHA"><path codeLine="100" d="M539.2321,80.5856 C463.8721,101.1456 331.72,141.14 221,197 C211.05,202.02 216.4323,198.6093 206.4023,204.4093 " fill="transparent" id="USUARIO-RECUPERACAO_SENHA" style="stroke:#181818;stroke-width:1;"/><line style="stroke:#181818;stroke-width:1;" x1="542.0382" x2="544.1439" y1="75.6739" y2="83.3918"/><line style="stroke:#181818;stroke-width:1;" x1="539.144" x2="541.2496" y1="76.4635" y2="84.1814"/><line style="stroke:#181818;stroke-width:1;" x1="539.2321" x2="546.95" y1="80.5856" y2="78.48"/><line style="stroke:#181818;stroke-width:1;" x1="197.7455" x2="193.8236" y1="209.4152" y2="218.6141"/><line style="stroke:#181818;stroke-width:1;" x1="197.7455" x2="187.8164" y1="209.4152" y2="208.2259"/><line style="stroke:#181818;stroke-width:1;" x1="197.7455" x2="190.82" y1="209.4152" y2="213.42"/><ellipse cx="202.9396" cy="206.4117" fill="transparent" rx="4" ry="4" style="stroke:#181818;stroke-width:1;"/><text fill="#000000" font-family="sans-serif" font-size="13" lengthAdjust="spacing" textLength="45.7729" x="323" y="163.0669">solicita</text></g><!--SRC=[ZLN1Zg904Btx5HKk9finU_T6aDaXST0mwjMqqAEL1PhGZPdDk1-pn_sE-R6j1XbQ6fprODB5grTLhr_15FnSOS8IBc5TOXvZmL1EE0NLBzY-RDqeMC7x1E0RO09pm5pHOJQZlrnad29IKTwHpZnZc9e1oVCJwmA_9orlv7lRjH-vdhlQl_ZXapjIeP8LAr7iZRWIFtbk5acOOdl-Lc39OYRe2GMumemRzQZMOx0SAV8gb3093oY6UluHRTV_gmIf6PVOj6CHUUxI3nTtT5LOT8a0KmZ2HR0B5bjt2Q9g6Xdas_ixFzoCqSOivNdIrvEVYSQ8TBntoGXHfQ9_3rVrwNGIfJxLzm1mHea7J6kVtKpclysrxSui4G_WYQnWfSBqH4TRX-klIVf2ajNpseqsmVB9VTP3t1UcBm70iQoAcq1jihZhBzCPmruBLvlWCV2qjqVgKR9aHvwDgDVZyrRXBjZu8rnICLL9KwL6duAkcWZu0x2Oeo9rInvNiX6sMPdyZ2CZNDT-Vy_o0wlPKutufX3nbCKeyaOnEMdVA9VBR7Qvj8iv1wSGKbRet034kxai158ySoPDLp2CQ6cCg8LhtK1mUk6b6dwDm12j0UTIVVm1tKIlpGv2Uy-S-XPgLqcI8i4p9fL-hVPQlvD5UrBBsNRMTZLYRABu-0knkK2VGdsTIjRW1txT0sksMpTeZNKD_Q6WBgthiD1gGAxMqrfIiY7xtdHWtss7OrAA66akO1QTkNAVurXaFLHTsAAolqm4bIAbUHLp_W40]--></g></svg>